name rise35.5848peak51.9257fall54.8793.mot
datacolumns 19
datarows 33
range 18.88825300000000 18.94159300000000
endheader
time	ground_force1_vx	ground_force1_vy	ground_force1_vz	ground_force1_px	ground_force1_py	ground_force1_pz	ground_force2_vx	ground_force2_vy	ground_force2_vz	ground_force2_px	ground_force2_py	ground_force2_pz	ground_torque1_x	ground_torque1_y	ground_torque1_z	ground_torque2_x	ground_torque2_y	ground_torque2_z	
18.88825300000000	70.12799400000000	781.19741199999999	58.55192200000000	0.30311400000000	0.00000000000000	0.11978000000000	0.00000000000000	0.00000000000000	0.00000000000000	0.00000000000000	0.00000000000000	0.00000000000000	0.00000000000000	18.73149400000000	0.00000000000000	0.00000000000000	0.00000000000000	0.00000000000000	
18.88992700000000	69.55193800000001	783.87945500000001	58.66283700000000	0.30246000000000	0.00000000000000	0.11970800000000	0.00000000000000	0.00000000000000	0.00000000000000	0.00000000000000	0.00000000000000	0.00000000000000	0.00000000000000	18.85411300000000	0.00000000000000	0.00000000000000	0.00000000000000	0.00000000000000	
18.89159100000000	68.97254800000000	786.40109099999995	58.76493000000000	0.30182400000000	0.00000000000000	0.11963500000000	0.00000000000000	0.00000000000000	0.00000000000000	0.00000000000000	0.00000000000000	0.00000000000000	0.00000000000000	18.97325500000000	0.00000000000000	0.00000000000000	0.00000000000000	0.00000000000000	
18.89325500000000	68.39056400000000	788.76199799999995	58.85844700000000	0.30120200000000	0.00000000000000	0.11956200000000	0.00000000000000	0.00000000000000	0.00000000000000	0.00000000000000	0.00000000000000	0.00000000000000	0.00000000000000	19.08887000000000	0.00000000000000	0.00000000000000	0.00000000000000	0.00000000000000	
18.89492200000000	67.80665000000000	790.96204100000000	58.94357400000000	0.30059400000000	0.00000000000000	0.11948800000000	0.00000000000000	0.00000000000000	0.00000000000000	0.00000000000000	0.00000000000000	0.00000000000000	0.00000000000000	19.20088100000000	0.00000000000000	0.00000000000000	0.00000000000000	0.00000000000000	
18.89659400000000	67.22139799999999	793.00126599999999	59.02044400000000	0.29999800000000	0.00000000000000	0.11941400000000	0.00000000000000	0.00000000000000	0.00000000000000	0.00000000000000	0.00000000000000	0.00000000000000	0.00000000000000	19.30918600000000	0.00000000000000	0.00000000000000	0.00000000000000	0.00000000000000	
18.89825500000000	66.63532600000001	794.87991399999999	59.08913600000000	0.29941000000000	0.00000000000000	0.11934000000000	0.00000000000000	0.00000000000000	0.00000000000000	0.00000000000000	0.00000000000000	0.00000000000000	0.00000000000000	19.41365800000000	0.00000000000000	0.00000000000000	0.00000000000000	0.00000000000000	
18.89992100000000	66.04888600000000	796.59841300000005	59.14968000000000	0.29883000000000	0.00000000000000	0.11926600000000	0.00000000000000	0.00000000000000	0.00000000000000	0.00000000000000	0.00000000000000	0.00000000000000	0.00000000000000	19.51415200000000	0.00000000000000	0.00000000000000	0.00000000000000	0.00000000000000	
18.90159100000000	65.46246200000000	798.15739199999996	59.20206200000000	0.29825600000000	0.00000000000000	0.11919200000000	0.00000000000000	0.00000000000000	0.00000000000000	0.00000000000000	0.00000000000000	0.00000000000000	0.00000000000000	19.61050300000000	0.00000000000000	0.00000000000000	0.00000000000000	0.00000000000000	
18.90325400000000	64.87637900000000	799.55767500000002	59.24622400000000	0.29768500000000	0.00000000000000	0.11911700000000	0.00000000000000	0.00000000000000	0.00000000000000	0.00000000000000	0.00000000000000	0.00000000000000	0.00000000000000	19.70252800000000	0.00000000000000	0.00000000000000	0.00000000000000	0.00000000000000	
18.90492100000000	64.29089800000000	800.80028400000003	59.28207300000000	0.29711500000000	0.00000000000000	0.11904300000000	0.00000000000000	0.00000000000000	0.00000000000000	0.00000000000000	0.00000000000000	0.00000000000000	0.00000000000000	19.79003400000000	0.00000000000000	0.00000000000000	0.00000000000000	0.00000000000000	
18.90658700000000	63.70622900000000	801.88643999999999	59.30948200000000	0.29654500000000	0.00000000000000	0.11896800000000	0.00000000000000	0.00000000000000	0.00000000000000	0.00000000000000	0.00000000000000	0.00000000000000	0.00000000000000	19.87281500000000	0.00000000000000	0.00000000000000	0.00000000000000	0.00000000000000	
18.90825800000000	63.12252800000000	802.81756499999995	59.32829800000000	0.29597100000000	0.00000000000000	0.11889400000000	0.00000000000000	0.00000000000000	0.00000000000000	0.00000000000000	0.00000000000000	0.00000000000000	0.00000000000000	19.95065600000000	0.00000000000000	0.00000000000000	0.00000000000000	0.00000000000000	
18.90992400000000	62.53990500000000	803.59527800000001	59.33834100000000	0.29539300000000	0.00000000000000	0.11882000000000	0.00000000000000	0.00000000000000	0.00000000000000	0.00000000000000	0.00000000000000	0.00000000000000	0.00000000000000	20.02333800000000	0.00000000000000	0.00000000000000	0.00000000000000	0.00000000000000	
18.91158900000000	61.95842500000000	804.22139300000003	59.33941500000000	0.29480800000000	0.00000000000000	0.11874600000000	0.00000000000000	0.00000000000000	0.00000000000000	0.00000000000000	0.00000000000000	0.00000000000000	0.00000000000000	20.09063800000000	0.00000000000000	0.00000000000000	0.00000000000000	0.00000000000000	
18.91325800000000	61.37811600000000	804.69791999999995	59.33130800000000	0.29421500000000	0.00000000000000	0.11867200000000	0.00000000000000	0.00000000000000	0.00000000000000	0.00000000000000	0.00000000000000	0.00000000000000	0.00000000000000	20.15233300000000	0.00000000000000	0.00000000000000	0.00000000000000	0.00000000000000	
18.91492200000000	60.79897000000000	805.02706300000000	59.31380200000000	0.29361000000000	0.00000000000000	0.11859900000000	0.00000000000000	0.00000000000000	0.00000000000000	0.00000000000000	0.00000000000000	0.00000000000000	0.00000000000000	20.20820400000000	0.00000000000000	0.00000000000000	0.00000000000000	0.00000000000000	
18.91658800000000	60.22094900000000	805.21120900000005	59.28666900000000	0.29299300000000	0.00000000000000	0.11852500000000	0.00000000000000	0.00000000000000	0.00000000000000	0.00000000000000	0.00000000000000	0.00000000000000	0.00000000000000	20.25803500000000	0.00000000000000	0.00000000000000	0.00000000000000	0.00000000000000	
18.91825300000000	59.64398700000000	805.25293499999998	59.24968600000000	0.29236100000000	0.00000000000000	0.11845200000000	0.00000000000000	0.00000000000000	0.00000000000000	0.00000000000000	0.00000000000000	0.00000000000000	0.00000000000000	20.30161900000000	0.00000000000000	0.00000000000000	0.00000000000000	0.00000000000000	
18.91992500000000	59.06800000000000	805.15499499999999	59.20263100000000	0.29171400000000	0.00000000000000	0.11838000000000	0.00000000000000	0.00000000000000	0.00000000000000	0.00000000000000	0.00000000000000	0.00000000000000	0.00000000000000	20.33875700000000	0.00000000000000	0.00000000000000	0.00000000000000	0.00000000000000	
18.92159000000000	58.49288300000000	804.92031599999996	59.14529200000000	0.29104800000000	0.00000000000000	0.11830800000000	0.00000000000000	0.00000000000000	0.00000000000000	0.00000000000000	0.00000000000000	0.00000000000000	0.00000000000000	20.36926500000000	0.00000000000000	0.00000000000000	0.00000000000000	0.00000000000000	
18.92326100000000	57.91851800000000	804.55199800000003	59.07746800000000	0.29036300000000	0.00000000000000	0.11823600000000	0.00000000000000	0.00000000000000	0.00000000000000	0.00000000000000	0.00000000000000	0.00000000000000	0.00000000000000	20.39297100000000	0.00000000000000	0.00000000000000	0.00000000000000	0.00000000000000	
18.92492700000000	57.34477800000000	804.05330100000003	58.99897600000000	0.28965800000000	0.00000000000000	0.11816400000000	0.00000000000000	0.00000000000000	0.00000000000000	0.00000000000000	0.00000000000000	0.00000000000000	0.00000000000000	20.40972100000000	0.00000000000000	0.00000000000000	0.00000000000000	0.00000000000000	
18.92659300000000	56.77153100000000	803.42764099999999	58.90965100000000	0.28893000000000	0.00000000000000	0.11809300000000	0.00000000000000	0.00000000000000	0.00000000000000	0.00000000000000	0.00000000000000	0.00000000000000	0.00000000000000	20.41937900000000	0.00000000000000	0.00000000000000	0.00000000000000	0.00000000000000	
18.92825700000000	56.19864100000000	802.67858400000000	58.80935100000000	0.28817900000000	0.00000000000000	0.11802300000000	0.00000000000000	0.00000000000000	0.00000000000000	0.00000000000000	0.00000000000000	0.00000000000000	0.00000000000000	20.42182900000000	0.00000000000000	0.00000000000000	0.00000000000000	0.00000000000000	
18.92992200000000	55.62597500000000	801.80983900000001	58.69796100000000	0.28740300000000	0.00000000000000	0.11795200000000	0.00000000000000	0.00000000000000	0.00000000000000	0.00000000000000	0.00000000000000	0.00000000000000	0.00000000000000	20.41697700000000	0.00000000000000	0.00000000000000	0.00000000000000	0.00000000000000	
18.93158700000000	55.05340300000000	800.82524599999999	58.57539200000000	0.28660300000000	0.00000000000000	0.11788200000000	0.00000000000000	0.00000000000000	0.00000000000000	0.00000000000000	0.00000000000000	0.00000000000000	0.00000000000000	20.40475200000000	0.00000000000000	0.00000000000000	0.00000000000000	0.00000000000000	
18.93325300000000	54.48080500000000	799.72877300000005	58.44158800000000	0.28577600000000	0.00000000000000	0.11781300000000	0.00000000000000	0.00000000000000	0.00000000000000	0.00000000000000	0.00000000000000	0.00000000000000	0.00000000000000	20.38510600000000	0.00000000000000	0.00000000000000	0.00000000000000	0.00000000000000	
18.93492700000000	53.90806900000000	798.52450499999998	58.29652400000000	0.28492200000000	0.00000000000000	0.11774300000000	0.00000000000000	0.00000000000000	0.00000000000000	0.00000000000000	0.00000000000000	0.00000000000000	0.00000000000000	20.35801900000000	0.00000000000000	0.00000000000000	0.00000000000000	0.00000000000000	
18.93658700000000	53.33509700000000	797.21663599999999	58.14020900000000	0.28404100000000	0.00000000000000	0.11767400000000	0.00000000000000	0.00000000000000	0.00000000000000	0.00000000000000	0.00000000000000	0.00000000000000	0.00000000000000	20.32349500000000	0.00000000000000	0.00000000000000	0.00000000000000	0.00000000000000	
18.93825700000000	52.76180600000000	795.80945799999995	57.97268900000000	0.28313200000000	0.00000000000000	0.11760500000000	0.00000000000000	0.00000000000000	0.00000000000000	0.00000000000000	0.00000000000000	0.00000000000000	0.00000000000000	20.28156300000000	0.00000000000000	0.00000000000000	0.00000000000000	0.00000000000000	
18.93991900000000	52.18813000000000	794.30735600000003	57.79404300000000	0.28219500000000	0.00000000000000	0.11753700000000	0.00000000000000	0.00000000000000	0.00000000000000	0.00000000000000	0.00000000000000	0.00000000000000	0.00000000000000	20.23228300000000	0.00000000000000	0.00000000000000	0.00000000000000	0.00000000000000	
18.94159300000000	51.61402400000000	792.71479699999998	57.60439000000000	0.28123100000000	0.00000000000000	0.11746900000000	0.00000000000000	0.00000000000000	0.00000000000000	0.00000000000000	0.00000000000000	0.00000000000000	0.00000000000000	20.17573700000000	0.00000000000000	0.00000000000000	0.00000000000000	0.00000000000000	
